<?xml version="1.0" standalone="no"?>
<!DOCTYPE svg PUBLIC "-//W3C//DTD SVG 20010904//EN"
 "http://www.w3.org/TR/2001/REC-SVG-20010904/DTD/svg10.dtd">
<svg version="1.0" xmlns="http://www.w3.org/2000/svg"
 width="1256.000000pt" height="483.000000pt" viewBox="0 0 1256.000000 483.000000"
 preserveAspectRatio="xMidYMid meet">

<g transform="translate(0.000000,483.000000) scale(0.100000,-0.100000)"
fill="#3f51b5" stroke="none">
<path d="M11959 4737 c-64 -24 -107 -57 -139 -104 -62 -95 -63 -104 -68 -591
l-4 -443 -47 63 c-83 109 -216 192 -376 234 -98 26 -388 27 -491 2 -176 -43
-305 -119 -434 -254 -200 -212 -285 -469 -284 -859 0 -203 13 -299 59 -458
102 -352 353 -615 666 -698 118 -31 318 -32 441 -1 200 49 365 157 438 285
l27 47 12 -72 c21 -129 74 -211 168 -258 39 -20 63 -24 128 -24 94 0 135 15
198 73 56 52 85 119 97 224 13 113 13 2436 0 2550 -16 137 -68 225 -157 267
-60 28 -181 37 -234 17z m-585 -1328 c151 -56 266 -198 321 -394 22 -82 31
-310 15 -416 -32 -226 -146 -396 -307 -461 -49 -19 -76 -23 -173 -23 -108 1
-119 3 -183 32 -172 81 -274 260 -296 522 -29 332 83 621 279 721 101 52 238
59 344 19z"/>
<path d="M1935 4721 c-109 -28 -185 -103 -229 -226 -7 -20 -12 -343 -16 -1000
-7 -1070 -5 -1039 -71 -1173 -60 -123 -135 -173 -270 -180 -117 -6 -185 14
-249 74 -61 57 -90 122 -136 304 -41 163 -79 252 -126 300 -45 43 -75 57 -147
69 -164 27 -313 -58 -356 -201 -33 -113 -8 -343 56 -509 42 -108 151 -286 218
-355 105 -107 238 -175 430 -216 118 -25 402 -30 521 -9 375 67 632 279 739
611 65 202 73 356 69 1395 -3 819 -3 831 -25 893 -49 145 -149 220 -301 228
-42 2 -90 0 -107 -5z"/>
<path d="M5981 4713 c-176 -27 -282 -75 -370 -168 -98 -104 -144 -259 -157
-531 l-7 -151 -101 -6 c-225 -12 -312 -93 -293 -274 6 -62 38 -110 97 -150 45
-31 89 -42 203 -50 l97 -6 0 -711 c0 -391 5 -744 10 -784 17 -129 75 -218 174
-270 70 -36 186 -37 264 -3 69 31 134 103 163 184 l23 62 4 761 3 761 112 7
c230 15 304 54 328 178 20 104 -8 187 -80 235 -53 36 -127 54 -250 60 l-113 6
4 131 c4 149 19 195 77 233 40 27 119 30 273 11 113 -14 158 -5 214 44 53 46
77 101 77 174 0 149 -113 235 -345 264 -113 14 -294 11 -407 -7z"/>
<path d="M8094 4660 c-263 -28 -533 -130 -751 -283 -113 -79 -291 -257 -370
-370 -293 -417 -369 -948 -202 -1423 87 -249 205 -431 401 -620 215 -206 464
-337 775 -406 83 -19 129 -22 303 -22 175 0 220 3 310 23 127 27 257 70 364
121 l78 37 465 -154 c256 -85 467 -152 470 -149 3 2 -65 214 -150 469 l-155
464 38 79 c51 107 94 237 121 364 19 88 23 137 23 305 1 173 -2 215 -22 309
-46 212 -123 396 -243 576 -85 128 -291 334 -419 419 -309 205 -681 298 -1036
261z m316 -665 c36 -9 103 -34 150 -57 68 -34 102 -59 170 -128 165 -165 233
-368 196 -584 -18 -111 -42 -174 -101 -266 -95 -150 -243 -254 -420 -296 -39
-10 -71 -18 -72 -18 -1 -1 5 -33 13 -71 25 -126 18 -115 78 -115 72 0 267 -34
340 -60 85 -29 143 -66 162 -102 21 -40 9 -52 -71 -72 -202 -51 -882 -57
-1150 -11 -106 19 -135 32 -135 61 0 28 58 79 117 105 86 37 261 71 413 82
l35 2 17 75 c24 113 28 106 -54 124 -192 43 -370 184 -457 361 -192 389 21
855 441 965 90 23 238 26 328 5z"/>
<path d="M8149 3626 c-138 -49 -216 -171 -207 -320 11 -168 142 -289 313 -289
87 0 145 24 214 88 67 63 95 128 95 225 -1 177 -135 311 -309 310 -38 -1 -86
-7 -106 -14z m216 -50 c123 -57 188 -193 151 -319 -36 -123 -139 -202 -264
-200 -80 0 -128 19 -187 74 -116 107 -113 303 7 404 82 69 198 86 293 41z"/>
<path d="M8256 3412 c-3 -3 -6 -23 -6 -44 0 -37 -1 -38 -38 -38 -49 0 -55 -6
-36 -42 28 -54 91 -63 135 -19 35 35 38 77 9 113 -19 25 -54 41 -64 30z"/>
<path d="M3705 3894 c-376 -57 -657 -269 -801 -603 -41 -94 -79 -236 -95 -358
-16 -121 -6 -381 20 -500 80 -369 309 -645 635 -768 268 -101 653 -109 921
-19 326 109 562 348 558 565 -1 64 -17 101 -64 147 -42 41 -89 56 -169 56 -83
0 -114 -18 -252 -143 -180 -163 -294 -226 -438 -239 -237 -22 -411 71 -511
272 -36 74 -68 188 -69 243 l0 22 608 4 c528 3 615 6 670 20 134 36 205 91
238 189 27 75 24 273 -4 379 -92 343 -332 595 -667 698 -159 50 -395 64 -580
35z m318 -459 c84 -22 134 -50 194 -111 77 -77 143 -226 143 -326 l0 -38 -459
0 -460 0 6 38 c30 216 164 390 335 436 70 19 170 20 241 1z"/>
<path d="M375 941 c-148 -40 -233 -149 -243 -313 -9 -151 52 -277 163 -333 52
-27 68 -30 149 -30 74 0 100 4 141 23 90 41 145 114 145 191 0 47 -21 64 -73
59 -28 -3 -36 -11 -63 -63 -39 -75 -80 -105 -144 -105 -63 0 -108 31 -140 95
-21 42 -25 64 -25 140 0 74 4 98 23 137 31 62 71 91 136 95 66 5 103 -17 150
-91 32 -50 40 -56 69 -56 87 0 90 96 5 177 -66 63 -203 98 -293 74z"/>
<path d="M4365 941 c-11 -5 -27 -17 -37 -27 -23 -27 -228 -550 -228 -584 0
-19 9 -36 26 -49 53 -42 92 -18 128 79 l24 65 129 3 130 3 23 -62 c24 -67 58
-109 88 -109 33 0 72 38 72 70 0 16 -50 153 -112 305 -98 244 -115 280 -142
296 -33 20 -68 23 -101 10z m89 -274 l45 -127 -91 0 c-68 0 -89 3 -85 13 2 6
22 65 43 129 21 65 39 116 40 115 2 -1 23 -60 48 -130z"/>
<path d="M8233 940 c-12 -5 -29 -19 -37 -32 -25 -39 -226 -556 -226 -582 0
-29 42 -66 76 -66 29 0 56 34 83 109 l22 61 129 0 128 0 28 -71 c15 -39 37
-77 48 -85 48 -33 111 0 109 57 -2 42 -215 565 -241 591 -22 22 -87 32 -119
18z m94 -275 l41 -125 -90 0 c-68 0 -89 3 -85 13 2 6 22 63 43 124 22 62 41
113 44 113 3 0 24 -56 47 -125z"/>
<path d="M10480 930 c-19 -19 -20 -33 -20 -325 0 -292 1 -306 20 -325 27 -27
66 -25 95 5 24 23 25 29 25 160 0 81 5 145 11 158 27 53 93 73 135 43 17 -13
19 -31 24 -181 5 -160 6 -168 29 -186 30 -25 66 -24 91 1 18 18 20 33 20 193
0 195 -8 226 -70 262 -51 30 -152 28 -202 -3 l-38 -24 0 92 c0 87 -9 126 -34
142 -21 14 -66 8 -86 -12z"/>
<path d="M6196 919 c-33 -26 -33 -53 -1 -84 45 -46 115 -19 115 44 0 56 -65
79 -114 40z"/>
<path d="M3640 923 c-29 -10 -40 -37 -40 -97 0 -59 -2 -62 -33 -76 -23 -11
-32 -22 -32 -40 0 -18 9 -29 32 -40 l33 -15 0 -145 c0 -167 11 -203 70 -232
95 -48 261 16 191 73 -15 13 -32 16 -62 12 -29 -4 -44 -2 -50 8 -5 8 -9 75 -9
150 l0 136 40 7 c31 5 44 13 52 32 11 23 10 29 -11 45 -13 11 -36 19 -52 19
-29 0 -29 0 -29 64 0 58 -3 67 -26 85 -27 21 -45 24 -74 14z"/>
<path d="M5893 915 c-16 -11 -22 -30 -28 -84 -6 -62 -9 -70 -31 -75 -48 -12
-49 -79 -1 -91 24 -6 24 -9 30 -160 7 -177 17 -208 75 -232 45 -19 141 -13
177 11 27 18 34 59 13 73 -7 4 -35 8 -63 8 l-50 0 -3 148 -3 147 24 0 c33 0
67 27 67 55 0 27 -25 45 -63 45 -23 0 -25 4 -31 70 -6 55 -12 73 -29 85 -27
19 -57 19 -84 0z"/>
<path d="M2622 752 c-95 -34 -142 -101 -150 -213 -6 -87 17 -158 69 -210 104
-104 335 -85 392 33 18 38 9 65 -27 74 -19 4 -37 -5 -80 -40 -66 -54 -114 -61
-161 -24 -25 19 -55 73 -55 97 0 6 63 11 149 13 130 3 152 5 170 22 38 35 21
137 -32 194 -60 64 -180 88 -275 54z m147 -98 c19 -14 51 -69 51 -89 0 -3 -47
-5 -105 -5 -58 0 -105 2 -105 5 0 3 6 21 14 39 17 41 51 66 91 66 17 0 41 -7
54 -16z"/>
<path d="M3190 761 c-140 -43 -210 -183 -166 -335 33 -112 138 -176 268 -162
67 7 110 26 155 69 59 56 53 137 -10 137 -26 0 -41 -10 -82 -55 -44 -47 -56
-55 -87 -55 -96 0 -150 137 -98 245 22 45 53 65 102 65 25 0 42 -11 79 -50 49
-52 79 -62 111 -37 35 26 23 82 -27 125 -57 50 -172 75 -245 53z"/>
<path d="M7367 754 c-160 -51 -210 -286 -88 -417 101 -110 335 -95 397 24 8
17 12 39 9 49 -8 26 -50 36 -74 19 -10 -8 -37 -29 -61 -46 -78 -60 -165 -33
-188 57 l-10 40 133 0 c153 0 189 9 204 51 14 41 -9 122 -45 160 -65 69 -179
95 -277 63z m148 -100 c20 -13 45 -60 45 -85 0 -5 -47 -9 -104 -9 l-105 0 10
33 c19 67 97 99 154 61z"/>
<path d="M11170 761 c-76 -23 -138 -80 -161 -148 -18 -53 -16 -152 5 -206 58
-152 299 -197 418 -77 43 42 50 83 19 100 -32 16 -49 12 -88 -24 -21 -18 -48
-38 -60 -45 -31 -16 -85 -14 -111 5 -26 18 -52 65 -52 94 0 19 6 20 130 20
154 0 194 12 205 58 12 57 -23 139 -78 182 -53 42 -160 61 -227 41z m121 -101
c21 -12 49 -60 49 -85 0 -12 -16 -15 -100 -15 -84 0 -100 3 -100 15 0 24 28
73 47 84 23 13 79 14 104 1z"/>
<path d="M12095 761 c-116 -30 -175 -115 -175 -250 0 -125 67 -214 181 -241
100 -24 208 5 263 71 35 41 32 80 -6 93 -22 8 -33 5 -63 -20 -63 -50 -89 -64
-118 -64 -42 0 -82 25 -101 64 -30 65 -32 64 135 68 147 3 151 4 171 28 45 56
0 174 -86 225 -47 28 -146 41 -201 26z m136 -120 c17 -17 29 -40 29 -55 l0
-26 -100 0 c-55 0 -100 4 -100 9 0 5 4 21 9 34 27 71 109 90 162 38z"/>
<path d="M952 741 c-66 -23 -98 -52 -128 -116 -44 -92 -26 -219 40 -287 120
-123 343 -93 412 55 45 99 29 221 -41 293 -67 70 -178 91 -283 55z m156 -97
c34 -24 52 -68 52 -129 0 -99 -41 -155 -114 -155 -25 0 -43 8 -64 29 -61 61
-56 209 9 255 30 20 88 21 117 0z"/>
<path d="M1400 740 c-19 -19 -20 -33 -20 -225 0 -205 0 -206 25 -230 31 -32
59 -32 90 0 24 23 25 29 25 160 0 81 5 145 11 158 27 53 93 73 135 43 17 -13
19 -31 24 -181 5 -160 6 -168 29 -186 30 -25 66 -24 91 1 18 18 20 33 20 190
0 193 -8 225 -61 257 -69 42 -159 41 -223 -2 -20 -14 -36 -20 -36 -15 0 19
-40 50 -65 50 -14 0 -34 -9 -45 -20z"/>
<path d="M1956 744 c-25 -25 -28 -51 -24 -254 3 -188 4 -192 27 -211 30 -25
66 -24 91 1 18 18 20 34 20 138 1 141 10 190 45 220 34 29 85 29 111 1 17 -18
20 -42 24 -181 l5 -161 27 -20 c23 -17 33 -19 55 -11 48 17 54 43 51 226 -3
150 -5 169 -24 195 -27 38 -99 73 -149 73 -41 0 -117 -29 -130 -49 -4 -8 -16
-1 -35 19 -31 33 -69 39 -94 14z"/>
<path d="M4810 740 c-19 -19 -20 -33 -20 -225 0 -205 0 -206 25 -230 29 -30
55 -32 86 -6 23 18 24 26 29 171 l5 152 33 29 c44 39 94 40 119 2 14 -21 18
-57 23 -185 4 -143 7 -161 24 -174 46 -33 99 -4 112 61 3 20 5 98 2 174 -4
114 -8 144 -24 172 -30 51 -77 74 -155 74 -55 0 -72 -4 -107 -28 -31 -20 -42
-23 -42 -13 0 20 -39 46 -67 46 -13 0 -32 -9 -43 -20z"/>
<path d="M5332 744 c-13 -9 -22 -26 -22 -40 0 -14 37 -116 82 -226 l81 -201
-24 -46 c-24 -46 -24 -46 -81 -49 -46 -2 -60 -7 -69 -23 -15 -28 11 -64 52
-73 89 -17 172 9 206 65 36 60 214 530 211 557 -2 16 -14 32 -30 42 -25 13
-31 13 -55 0 -24 -13 -36 -39 -82 -173 -30 -87 -57 -155 -61 -150 -4 4 -29 73
-55 152 -26 79 -56 152 -66 162 -23 23 -57 24 -87 3z"/>
<path d="M6194 735 l-25 -25 3 -206 c3 -202 3 -206 27 -225 30 -24 52 -24 85
2 l26 20 0 210 c0 196 -1 210 -20 229 -27 27 -66 25 -96 -5z"/>
<path d="M6434 739 c-17 -18 -19 -41 -22 -177 -5 -187 3 -257 29 -283 24 -24
60 -24 90 0 23 18 24 27 30 173 3 84 9 161 13 171 18 40 97 52 116 18 5 -11
10 -83 10 -161 0 -160 11 -205 55 -216 35 -9 73 10 85 42 6 14 10 84 10 155 0
159 16 198 82 199 50 0 58 -27 58 -198 0 -149 1 -154 25 -177 29 -30 68 -32
95 -5 19 19 20 33 20 200 0 197 -5 219 -55 250 -65 40 -160 35 -227 -12 -18
-13 -29 -15 -34 -7 -11 18 -86 49 -119 49 -45 0 -98 -17 -123 -40 -12 -12 -22
-16 -22 -10 0 20 -41 50 -68 50 -17 0 -37 -9 -48 -21z"/>
<path d="M8680 740 c-19 -19 -20 -33 -20 -225 0 -205 0 -206 25 -230 29 -30
55 -32 86 -6 23 18 24 26 29 171 l5 152 33 29 c44 39 94 40 119 2 14 -21 18
-57 23 -185 4 -143 7 -161 24 -174 46 -33 99 -4 112 61 3 20 5 98 2 174 -4
114 -8 144 -24 172 -30 51 -77 74 -155 74 -55 0 -72 -4 -107 -28 -31 -20 -42
-23 -42 -13 0 20 -39 46 -67 46 -13 0 -32 -9 -43 -20z"/>
<path d="M9213 750 c-44 -18 -39 -47 46 -259 45 -110 81 -209 81 -219 0 -11
-10 -34 -23 -53 -21 -31 -28 -34 -82 -39 -58 -5 -60 -6 -63 -36 -4 -42 16 -55
90 -61 52 -4 71 0 108 19 25 13 53 37 64 56 20 35 198 490 210 535 13 54 -62
89 -103 48 -10 -10 -40 -83 -66 -162 -26 -79 -51 -148 -55 -152 -4 -5 -31 61
-60 147 -60 182 -78 204 -147 176z"/>
<path d="M9697 742 c-10 -10 -17 -28 -17 -40 0 -11 29 -105 65 -209 67 -194
90 -233 136 -233 58 0 77 33 120 204 17 70 34 125 36 122 2 -2 21 -68 43 -147
41 -153 57 -179 110 -179 52 0 67 25 140 238 39 112 70 207 70 213 0 18 -41
49 -65 49 -42 0 -59 -30 -100 -178 -21 -78 -42 -139 -46 -135 -4 5 -21 61 -38
125 -38 143 -47 163 -78 177 -74 34 -103 1 -150 -172 -20 -75 -40 -134 -43
-130 -4 5 -24 69 -44 143 -20 74 -44 143 -53 152 -21 23 -65 23 -86 0z"/>
<path d="M11581 734 c-20 -25 -21 -40 -21 -226 0 -198 0 -199 25 -223 29 -30
55 -32 86 -6 23 18 24 27 30 166 8 191 14 200 120 200 67 0 74 2 85 24 8 16 9
31 4 42 -11 20 -80 49 -116 49 -29 0 -80 -24 -88 -42 -5 -11 -7 -11 -12 0 -23
49 -81 57 -113 16z"/>
</g>
</svg>
